<?xml version="1.0" encoding="UTF-8" standalone="no"?>
<svg width="64px" height="64px" viewBox="0 0 64 64" version="1.1" xmlns="http://www.w3.org/2000/svg" xmlns:xlink="http://www.w3.org/1999/xlink">
    <!-- Generator: Sketch 39.1 (31720) - http://www.bohemiancoding.com/sketch -->
    <title>Shape</title>
    <desc>Created with Sketch.</desc>
    <defs></defs>
    <g id="Page-1" stroke="none" stroke-width="1" fill="none" fill-rule="evenodd">
        <path d="M28.94,31.786 L0.614,60.114 C-0.173,60.901 -0.173,62.176 0.614,62.964 C1.007,63.357 1.524,63.554 2.038,63.554 C2.554,63.554 3.068,63.357 3.462,62.964 L32.002,34.42 L60.542,62.96 C60.938,63.355 61.452,63.55 61.968,63.55 C62.484,63.55 62.998,63.355 63.392,62.96 C64.18,62.174 64.18,60.9 63.392,60.112 L35.065,31.786 L63.41,3.438 C64.197,2.651 64.197,1.376 63.41,0.588 C62.623,-0.197 61.348,-0.197 60.562,0.588 L32.002,29.15 L3.442,0.59 C2.653,-0.196 1.38,-0.196 0.59,0.59 C-0.196,1.377 -0.196,2.652 0.59,3.44 L28.94,31.786 L28.94,31.786 Z" id="Shape" fill="#FFFFFF"></path>
    </g>
</svg>