<?xml version="1.0" encoding="utf-8"?>
<!-- Generator: Adobe Illustrator 17.0.0, SVG Export Plug-In . SVG Version: 6.00 Build 0)  -->
<!DOCTYPE svg PUBLIC "-//W3C//DTD SVG 1.1//EN" "http://www.w3.org/Graphics/SVG/1.1/DTD/svg11.dtd">
<svg version="1.1" id="Ebene_1" xmlns="http://www.w3.org/2000/svg" xmlns:xlink="http://www.w3.org/1999/xlink" x="0px" y="0px"
	 width="331.803px" height="92.212px" viewBox="0 0 331.803 92.212" enable-background="new 0 0 331.803 92.212"
	 xml:space="preserve">
<path fill="#000" d="M5.61,31.52h0.204c2.754-5.917,6.426-10.812,13.363-10.812c10.201,0,16.525,10.812,16.525,25.909
	c0,14.791-6.63,24.889-18.769,24.889C0,71.505,0,54.776,0,47.942V0h5.61V31.52z M17.035,67.527c8.976,0,12.445-9.486,12.445-20.095
	c0-10.302-2.346-22.747-11.323-22.747c-7.14,0-12.139,10.915-12.139,23.359C6.018,56.816,8.262,67.527,17.035,67.527z"/>
<path fill="#000" d="M75.991,58.347h-0.204c-1.02,3.264-4.692,13.159-14.179,13.159c-12.444,0-14.28-9.486-14.28-15.811V21.829
	h5.61v32.539c0,7.446,3.06,12.036,8.161,12.036c10.506,0,14.893-13.158,14.893-22.645V21.829h5.61v48.554h-5.61V58.347z"/>
<path fill="#000" d="M97.919,0h5.61v70.383h-5.61V0z"/>
<path fill="#000" d="M141.472,71.2c-1.632,0.102-3.264,0.306-4.998,0.306c-6.427,0-13.771-1.122-13.771-11.323V26.011h-7.956
	v-4.182h7.956V10.506l5.61-3.468v14.791h12.75v4.182h-12.75v30.295c0,4.692,0,11.22,8.772,11.22c1.53,0,2.958-0.204,4.386-0.714
	V71.2z"/>
<path fill="#000" d="M151.262,0h5.61v35.089h0.204c1.224-3.57,6.324-14.382,16.117-14.382c9.283,0,12.241,6.222,12.241,15.403
	v34.273h-5.61V37.946c0-5.508-0.612-12.139-7.65-12.139c-10.099,0-15.301,16.831-15.301,21.931v22.645h-5.61V0z"/>
<path fill="#000" d="M224.192,62.834h-0.204c-1.02,2.347-5.814,8.671-13.975,8.671c-7.854,0-12.955-5.916-12.955-12.343
	c0-9.282,8.263-15.811,27.133-15.811v-3.264c0-7.548,0-15.403-9.895-15.403c-7.854,0-8.875,4.998-9.078,8.977h-7.038
	c0.714-5.304,3.366-12.955,16.729-12.955c13.159,0,14.892,8.568,14.892,16.729v32.948h-5.61V62.834z M224.192,47.33
	c-4.692,0-20.911,0.102-20.911,11.119c0,4.896,3.774,7.956,8.467,7.956c9.282,0,12.444-9.486,12.444-16.32V47.33z"/>
<path fill="#000" d="M273.968,58.347h-0.204c-1.02,3.264-4.692,13.159-14.179,13.159c-12.444,0-14.28-9.486-14.28-15.811V21.829
	h5.61v32.539c0,7.446,3.06,12.036,8.16,12.036c10.507,0,14.893-13.158,14.893-22.645V21.829h5.61v48.554h-5.61V58.347z"/>
<path fill="#000" d="M295.795,21.829h5.61v9.792h0.203c1.122-3.162,4.999-10.915,13.261-10.915
	c11.527,0,16.934,11.118,16.934,25.909c0,12.75-4.692,24.889-17.035,24.889c-9.181,0-12.24-7.752-13.159-10.812h-0.203v31.52h-5.61
	V21.829z M314.462,67.527c7.956,0,11.118-10.812,11.118-20.707c0-11.221-3.162-22.135-11.221-22.135
	c-8.364,0-12.954,13.363-12.954,20.809C301.405,53.042,305.485,67.527,314.462,67.527z"/>
</svg>
